<?xml version="1.0" encoding="utf-8"?>
<!-- Generator: Adobe Illustrator 19.0.0, SVG Export Plug-In . SVG Version: 6.00 Build 0)  -->
<svg version="1.1" id="Layer_1" xmlns="http://www.w3.org/2000/svg" xmlns:xlink="http://www.w3.org/1999/xlink" x="0px" y="0px"
	 viewBox="-463 231 100 100" style="enable-background:new -463 231 100 100;" xml:space="preserve">
<style type="text/css">
	.st0{fill:#0373AA;}
	.st1{fill:#FFFFFF;}
</style>
<rect id="bg" x="-463" y="231" class="st0" width="100" height="100"/>
<path id="wpbakery" class="st1" d="M-392.2,253.1c-5-0.4-7.1,0.8-9.5,1.2c2.4,1.3,5.7,2.4,9.8,2.1c-3.7,1.5-9.7,1-13.9-1.6
	c-1.1-0.7-2.2-1.7-3.1-2.5c-3.4-3-5.8-8.9-16.6-9.3c-13.5-0.5-23.8,9.3-24.3,22c-0.5,12.7,10,23.4,23.4,23.9c0.2,0,0.4,0,0.5,0
	c3.5-0.2,8.2-1.6,11.6-3.8c-1.8,2.6-8.7,5.4-12.3,6.2c0.4,2.8,1.9,4.2,3.1,5c2.8,2,6-0.8,13.6-0.7c4.2,0.1,8.5,1.1,12,3.1l3.7-12.9
	c9.4,0.1,17.3-6.8,17.6-15.7C-375.9,261.1-382.5,253.8-392.2,253.1L-392.2,253.1z"/>
<g id="text">
	<path class="st1" d="M-446,307.3l-2.3,9.3h-2.1l-1.5-6.2l-1.5,6.2h-2.1l-2.4-9.3h2.2l1.3,5.7c0,0,0,0.1,0.1,0.3
		c0,0.1,0,0.2,0.1,0.3l1.5-6.3h2l1.6,6.3c0-0.1,0.1-0.3,0.1-0.6l1.3-5.7H-446z"/>
	<path class="st1" d="M-442.7,313.2v3.5h-2.2v-9.3h3.7c0.8,0,1.4,0.1,1.9,0.3c0.4,0.2,0.8,0.5,1.2,0.9s0.5,1,0.5,1.7
		c0,0.5-0.1,0.9-0.3,1.3s-0.4,0.8-0.8,1s-0.7,0.4-1,0.5s-0.8,0.1-1.5,0.1H-442.7z M-442.8,311.5h1.4c0.5,0,0.9-0.1,1.1-0.4
		s0.3-0.5,0.3-0.9c0-0.4-0.1-0.7-0.4-0.9s-0.6-0.3-1.1-0.3h-1.4V311.5z"/>
	<path class="st1" d="M-436.5,307.3h4.3c0.8,0,1.4,0.1,1.8,0.3s0.7,0.5,1,0.8s0.4,0.8,0.4,1.3c0,1-0.6,1.7-1.7,2.1
		c0.6,0.1,1.1,0.4,1.5,0.9c0.3,0.4,0.5,0.9,0.5,1.4c0,0.7-0.3,1.3-0.8,1.8s-1.4,0.8-2.6,0.8h-4.3V307.3z M-434.3,309v2h1.7
		c0.6,0,1-0.1,1.1-0.4c0.2-0.2,0.2-0.5,0.2-0.7c0-0.2-0.1-0.4-0.2-0.6c-0.1-0.2-0.3-0.3-0.4-0.3c-0.2,0-0.5-0.1-0.9-0.1H-434.3z
		 M-434.3,312.7v2.2h1.7c0.6,0,1-0.1,1.2-0.3c0.2-0.2,0.4-0.5,0.4-0.8c0-0.3-0.1-0.6-0.3-0.8c-0.2-0.2-0.6-0.3-1.1-0.3H-434.3z"/>
	<path class="st1" d="M-421.4,316.7h-2c-0.1-0.3-0.1-0.6-0.1-1.1c-0.3,0.5-0.7,0.8-1,1c-0.3,0.2-0.7,0.2-1.2,0.2
		c-0.6,0-1.2-0.2-1.6-0.5s-0.6-0.8-0.6-1.4c0-0.4,0.1-0.8,0.3-1.2s0.6-0.7,1.1-0.9c0.5-0.2,1.5-0.4,2.8-0.5v-0.4c0-0.7-0.3-1-1-1
		c-0.7,0-1.1,0.3-1.2,1l-1.9-0.2c0.1-0.8,0.5-1.3,1.1-1.7s1.3-0.5,2.1-0.5c0.5,0,0.9,0.1,1.3,0.2s0.7,0.3,1,0.5s0.4,0.5,0.5,0.7
		c0.1,0.2,0.1,0.7,0.1,1.3v3.1C-421.6,316-421.5,316.4-421.4,316.7z M-423.6,313.3c-1.4,0.1-2.1,0.6-2.1,1.3c0,0.2,0.1,0.5,0.2,0.6
		c0.2,0.2,0.4,0.3,0.6,0.3c0.4,0,0.7-0.1,0.9-0.4c0.2-0.3,0.4-0.7,0.4-1.1V313.3z"/>
	<path class="st1" d="M-415.3,312.1l2.2,4.6h-2.2l-1.4-3.1l-1.2,1.4v1.8h-1.9v-9.3h1.9v5.6l0.3-0.4c0.1-0.2,0.2-0.3,0.3-0.4l2-2.4h2
		L-415.3,312.1z"/>
	<path class="st1" d="M-406.2,313.5h-4.4c0,0.1,0,0.2,0,0.3c0,0.5,0.1,0.9,0.4,1.1c0.3,0.3,0.6,0.4,0.9,0.4c0.7,0,1.1-0.4,1.2-1.1
		l1.8,0.1c-0.5,1.6-1.6,2.4-3.1,2.4c-0.7,0-1.3-0.1-1.8-0.4c-0.5-0.3-0.9-0.7-1.2-1.2c-0.3-0.5-0.5-1.2-0.5-1.9c0-1.1,0.3-2,0.9-2.7
		c0.6-0.7,1.4-1,2.4-1c0.9,0,1.7,0.3,2.3,0.9C-406.6,311.2-406.2,312.2-406.2,313.5z M-410.7,312.4h2.5c-0.1-0.9-0.5-1.4-1.2-1.4
		C-410.2,310.9-410.6,311.4-410.7,312.4z"/>
	<path class="st1" d="M-403,316.7h-2v-6.9h1.9v1.3c0.3-1,0.8-1.4,1.5-1.4c0.1,0,0.2,0,0.4,0v2c-0.4,0-0.7,0.1-1,0.2
		c-0.2,0.1-0.4,0.4-0.6,0.7c-0.1,0.3-0.2,0.8-0.2,1.3V316.7z"/>
	<path class="st1" d="M-394.5,309.8l-2.2,6.6c-0.2,0.7-0.4,1.3-0.6,1.6c-0.2,0.3-0.4,0.6-0.7,0.8s-0.8,0.3-1.3,0.3
		c-0.3,0-0.6,0-1-0.1v-1.6c0.4,0.1,0.7,0.1,1,0.1c0.4,0,0.7-0.1,0.8-0.2c0.1-0.2,0.2-0.4,0.3-0.6l-2.5-6.9h2.2l1.3,4.1l1.3-4.1
		H-394.5z"/>
	<path class="st1" d="M-387.8,313v3.7h-2.2v-9.3h4.1c0.8,0,1.4,0.1,1.8,0.3c0.5,0.2,0.8,0.5,1.1,1c0.3,0.5,0.5,1,0.5,1.6
		c0,1.1-0.5,1.9-1.6,2.4l1.7,4.1h-2.4l-1.4-3.7H-387.8z M-387.8,309v2.4h1.3c0.4,0,0.8,0,1-0.1c0.2-0.1,0.4-0.2,0.5-0.4
		c0.2-0.2,0.2-0.5,0.2-0.7c0-0.3-0.1-0.5-0.2-0.7s-0.3-0.3-0.5-0.4c-0.2,0-0.5-0.1-1-0.1H-387.8z"/>
	<path class="st1" d="M-374.9,307.3v1.8h-2.3v7.5h-2.2v-7.5h-2.3v-1.8H-374.9z"/>
	<path class="st1" d="M-371.7,314.8h3.7v1.8h-5.9v-9.3h2.2V314.8z"/>
</g>
</svg>
